# xmcd
#
# Track frame offsets: 
#        150
#        11241
#        25777
#        38862
#        49052
#        57164
#        65398
#        75650
#        86347
#        95332
#        104054
#        113653
#
# Disc length: 1628 seconds
#
# Revision: 2
# Processed by: cddbd v1.5.2PL0 Copyright (c) Steve Scherf et al.
# Submitted via: ExactAudioCopyFreeDBPlugin 1.0
#
DISCID=91065a0c
DTITLE=Loretta Lynn - Coal Miner's Daughter [Greatest Hits]
DYEAR=2007
DGENRE=Country
TTITLE0=Hey Loretta
TTITLE1=Coal Miner's Daughter
TTITLE2=Let Your Love Flow
TTITLE3=You're Looking At Country
TTITLE4=One's On The Way
TTITLE5=The Pill
TTITLE6=I Fall To Pieces
TTITLE7=Crazy Medley
TTITLE8=She's Got You
TTITLE9=They Don't Make 'Em Like My Daddy
TTITLE10=You Ain't Woman Enough
TTITLE11=We've Come A Long Way Baby
EXTD=
EXTT0=
EXTT1=
EXTT2=
EXTT3=
EXTT4=
EXTT5=
EXTT6=
EXTT7=
EXTT8=
EXTT9=
EXTT10=
EXTT11=
PLAYORDER=
